<svg xmlns="http://www.w3.org/2000/svg" height="800" width="1200" xml:space="preserve" y="0" x="0" id="Layer_1" version="1.1" viewBox="-180.33 -69.35 1562.86 416.1"><style id="style8443" type="text/css">.st0{fill:#00b4f0}.st1{fill:#33383a}</style><g transform="translate(-58.9 -75.2)" id="g8463"><path id="path8445" d="M1261.1 214c0-6.6-3.9-12.3-9.6-14.9-.2-.1-.4-.3-.7-.4l-105.5-57.1c-2.8-1.6-5.9-2.4-9.1-2.4-10.1 0-18.3 8.2-18.3 18.3 0 8.1 4 13.6 12.5 17.3l72.9 39.1-72.8 39.1c-8.6 3.8-12.6 9.3-12.6 17.4 0 10.1 8.2 18.3 18.3 18.3 3.2 0 6.3-.8 9.1-2.4l105.5-57.1c.2-.1.3-.2.5-.3 5.8-2.4 9.8-8.2 9.8-14.9" class="st0"/><path id="path8447" d="M372.3 215.5c0-43.3-34.9-78.5-78-78.5-43.2 0-78.2 35.2-78.2 78.5s35.3 78.5 78.6 78.5c14.8 0 29.3-4.1 41.8-12l1.9-1.2.8 2c2.7 6.8 8.8 11.1 15.9 11.1 9.8 0 17.2-7.8 17.2-17.7zm-77.4 38c-20.9 0-38-17-38-38 0-20.9 17-38 38-38 20.9 0 38 17 38 38-.1 20.9-17.1 38-38 38" class="st1"/><path id="path8449" d="M545.6 215.5c0-43.3-34.6-78.5-77.8-78.5-43.2 0-78.1 35.2-78.1 78.5S425 294 468.3 294c14.8 0 29.3-4.1 41.8-12l1.9-1.2.8 2c2.7 6.8 8.6 11.1 15.8 11.1 9.7 0 17.1-7.9 17.1-17.7v-60.7zm-77.2 38c-20.9 0-38-17-38-38 0-20.9 17-38 38-38s38 17 38 38c0 20.9-17.1 38-38 38" class="st1"/><path id="path8451" d="M685.7 283.1c2.8 7 9.5 11.5 17 11.5 10.1 0 18.4-8.2 18.4-18.3V96.1c0-10.1-8.7-18.3-18.8-18.3-10.1 0-18.8 8.2-18.8 18.3v53.1l-1.4-1.1c-12.6-7.8-26-11.7-40.5-11.7-43.6 0-79 35.5-79 79.1 0 43.6 35.5 79.1 79.2 79.1 14.9 0 29.5-4.2 42-12.1l1.3-.8zm-43.8-30.3c-20.6 0-37.3-16.8-37.3-37.3 0-20.6 16.8-37.3 37.3-37.3 20.6 0 37.3 16.8 37.3 37.3 0 20.6-16.7 37.3-37.3 37.3" class="st1"/><path id="path8453" d="M954.4 160.2c-12.7-13.5-31.2-20.1-55.1-20.1-.8 0-19.8 1.1-32.7 8.3-2.8-8.7-11-15-20.3-15-11.5 0-21.1 9.3-21.3 20.8v122.1c0 11.8 9.6 21.3 21.4 21.3 11.8 0 21.4-9.6 21.4-21.4v-65c0-13.5 9.9-28.1 31.8-28.1 21 0 30.4 15 30.4 25.7v67.6c.1 11.7 9.7 21.2 21.3 21.2 11.8 0 21.4-9.6 21.4-21.4v-64.3c-.2-1.9 1.2-30.8-18.3-51.7" class="st1"/><path id="path8455" d="M192.5 134c-9.2 0-15.4 4.4-19.6 13.9L136 227.3l-36.9-79.4C95 138.4 88.8 134 79.6 134c-11.4 0-20.7 9.3-20.7 20.7 0 3.6.9 7.1 2.7 10.2l57.1 122.7c4.6 8.8 10.6 9.5 17.4 9.5 6.8 0 12.8-.7 17.4-9.5l57-122.5c1.8-3.1 2.7-6.7 2.7-10.3 0-11.5-9.3-20.8-20.7-20.8" class="st1"/><path id="path8457" d="M773 134.3c-11.7 0-21 9.1-21.3 20.8v120c0 11.8 9.6 21.4 21.4 21.4 11.8 0 21.4-9.6 21.4-21.4v-120c-.5-11.7-9.8-20.8-21.5-20.8" class="st1"/><path id="path8459" d="M773 76c12.4 0 22.4 10 22.4 22.4 0 12.4-10 22.4-22.4 22.4-12.4 0-22.4-10-22.4-22.4-.1-12.3 10-22.4 22.4-22.4" class="st1"/><path id="path8461" d="M1104.4 213.9c0-8-6.5-14.6-14.6-14.6h-3.5c-7.6 0-13.8-6.2-13.8-13.9v-74.7c0-8.6-3-16.4-8.1-22.6-6.5-7.9-16.4-12.9-27.4-12.9l-27.3.1c-7.5 0-13.6 6.1-13.6 13.6 0 5.1 2.8 9.5 6.9 11.9 2 1.1 4.2 1.7 6.7 1.7h8.6c7.7 0 13.9 6.2 13.9 13.9V184c0 14.6 10.8 26.7 24.8 28.9 0 0 3.7.7 7.2.7v.6c-3.5 0-7.2.7-7.2.7-14 2.1-24.8 14.2-24.8 28.9v67.6c0 7.7-6.2 13.9-13.9 13.9h-8.6c-2.4 0-4.7.6-6.7 1.7-4.1 2.3-6.9 6.8-6.9 11.9 0 7.5 6.1 13.6 13.6 13.6l27.3.1c11 0 20.9-5 27.4-12.9 5.1-6.1 8.1-14 8.1-22.6v-74.7c0-7.6 6.2-13.8 13.8-13.9h3.5c8 0 14.6-6.5 14.6-14.6 0 .2 0 .1 0 0 0 .1 0 0 0 0z" class="st0"/></g></svg>