<svg fill="#000000" xmlns="http://www.w3.org/2000/svg"  viewBox="0 0 24 24" width="480px" height="480px"><path fill-rule="evenodd" d="M 10.699219 10 C 10.546875 10 10.300781 10.066406 10.1875 10.265625 L 8.597656 13.015625 L 9.460938 13.019531 L 10.691406 10.886719 L 11.28125 11.890625 L 10.15625 11.890625 L 10.59375 12.640625 L 11.714844 12.640625 L 11.925781 13.015625 L 12.792969 13.015625 L 11.199219 10.253906 C 11.035156 10.003906 10.828125 10 10.699219 10 Z M 16.5 10.003906 L 14.1875 10.003906 C 13.394531 10.003906 12.75 10.679688 12.75 11.503906 C 12.75 12.335938 13.394531 13.003906 14.1875 13.003906 L 15.75 13.015625 L 16.5 12.253906 L 14.183594 12.261719 C 13.761719 12.257813 13.507813 11.851563 13.5 11.507813 C 13.488281 11.136719 13.773438 10.746094 14.1875 10.738281 L 15.75 10.761719 Z M 5.25 10.007813 L 5.25 13.007813 L 6 13.007813 L 6 10.757813 L 6.960938 10.757813 C 7.246094 10.753906 7.5 10.859375 7.5 11.128906 C 7.5 11.398438 7.25 11.511719 6.992188 11.511719 L 6 11.511719 L 7.273438 13.015625 L 8.25 13.007813 L 7.484375 12.109375 C 7.484375 12.109375 8.246094 11.882813 8.25 11.113281 C 8.253906 10.484375 7.871094 10.015625 7.226563 10.007813 Z M 17.011719 10.007813 L 17.011719 12.71875 C 17.011719 12.792969 17.035156 12.867188 17.089844 12.921875 C 17.144531 12.976563 17.214844 13.007813 17.292969 13.007813 L 19.261719 13.015625 L 20.011719 12.257813 L 17.761719 12.257813 L 17.761719 10.007813 Z M 21.511719 10.007813 C 20.765625 10.007813 20.160156 10.683594 20.160156 11.515625 C 20.160156 12.339844 20.773438 13.011719 21.511719 13.011719 L 23.265625 13.015625 L 23.988281 12.40625 L 21.511719 12.40625 C 21.304688 12.410156 20.992188 12.125 20.972656 11.824219 L 23.265625 11.820313 L 23.984375 11.230469 C 23.984375 11.230469 21.734375 11.238281 20.96875 11.246094 C 20.964844 10.851563 21.304688 10.601563 21.511719 10.597656 L 23.265625 10.597656 L 24 10.015625 Z M 1.5 10.011719 C 0.703125 10.011719 0 10.726563 0 11.550781 C 0 12.378906 0.703125 13.011719 1.5 13.011719 L 3 13.011719 C 3.796875 13.011719 4.5 12.339844 4.5 11.511719 C 4.5 10.683594 3.796875 10.011719 3 10.011719 Z M 1.5 10.761719 L 3 10.761719 C 3.148438 10.765625 3.683594 10.988281 3.679688 11.503906 C 3.675781 12.070313 3.191406 12.257813 3 12.261719 L 1.5 12.261719 C 1.15625 12.257813 0.808594 11.863281 0.808594 11.519531 C 0.808594 11.097656 1.207031 10.753906 1.5 10.761719 Z"/></svg>