<?xml version="1.0" encoding="utf-8"?>
<!-- Generator: Adobe Illustrator 22.1.0, SVG Export Plug-In . SVG Version: 6.00 Build 0)  -->
<svg version="1.1" id="Layer_1" xmlns="http://www.w3.org/2000/svg" xmlns:xlink="http://www.w3.org/1999/xlink" x="0px" y="0px"
	 viewBox="0 0 512 512" style="enable-background:new 0 0 512 512;" xml:space="preserve">
<g>
	<path d="M256.5,152.2c1.5-17.7,4.9-52.9,50-52.9h99c20.8,0,32.2-7.8,32.2-21.7V65.3c0-12.3,9.3-22.2,21.6-22.2
		c12.3,0,21.6,9.9,21.6,22.2v36.7c0,43.1-21.6,62.3-67.1,62.3H313c-30.2,0-33.1,14.8-33.1,27.2c0,1.3-0.1,2.5-0.2,3.7
		c-0.7,12.4-10.9,22.3-23.5,22.3c-12.6,0-22.8-9.8-23.5-22.3c-0.1-1.2-0.2-2.4-0.2-3.7c0-12.4-3-27.2-33.1-27.2H98.1
		C52.6,164.2,31,145,31,101.9V65.3c0-12.3,9.4-22.2,21.7-22.2S74.3,53,74.3,65.3v12.4c0,13.9,11.5,21.7,32.2,21.7h99
		c45,0,48.5,35.3,50,52.9H256.5L256.5,152.2z M256,468.9c11.6,0,21.5-7,25.8-16.4c1.1-1.8,97.5-170.4,98.6-172.2
		c12-19.7-3.2-44.5-27.3-44.5c-14,0-23.4,6.4-29.9,20.4L256,374.5l-67.2-118.2c-6.4-14-16-20.4-29.9-20.4
		c-24.1,0-39.3,24.7-27.3,44.5c1.1,1.9,97.5,170.4,98.6,172.2C234.5,461.9,244.4,468.9,256,468.9L256,468.9z"/>
</g>
</svg>
